<?xml version="1.0" encoding="UTF-8"?>
<svg width="18px" height="20px" viewBox="0 0 18 20" version="1.1" xmlns="http://www.w3.org/2000/svg" xmlns:xlink="http://www.w3.org/1999/xlink">
    <!-- Generator: Sketch 47.1 (45422) - http://www.bohemiancoding.com/sketch -->
    <title>Logo_serif_nocircle Copy</title>
    <desc>Created with Sketch.</desc>
    <defs></defs>
    <g id="Page-1" stroke="none" stroke-width="1" fill="none" fill-rule="evenodd">
        <g id="Artboard-2" fill-rule="nonzero" fill="#000000">
            <g id="Logo_serif_nocircle-Copy">
                <path d="M7.338,19.956 L7.575,19.06 L7.628,18.875 C7.646,18.805 7.654,18.734 7.654,18.664 C7.654,18.55 7.612,18.468 7.529,18.42 L7.18,18.229 C6.934,18.106 6.763,18.005 6.666,17.926 C6.569,17.847 6.521,17.733 6.521,17.583 C6.52475247,17.3607952 6.55360216,17.139726 6.607,16.924 L6.772,16.252 L6.772,16.252 L7.985,11.203 L14.972,3.135 C15.077,3.003 15.176,2.893 15.269,2.805 C15.362,2.717 15.482,2.618 15.632,2.508 L16.212,2.119 L17.161,1.513 L17.161,1.513 L17.517,0.247 L11.769,0.247 L11.571,1.104 C11.571,1.148 11.562,1.22 11.545,1.322 L11.519,1.513 C11.519,1.654 11.57,1.755 11.671,1.816 C11.7701769,1.87645205 11.8738093,1.92927114 11.981,1.974 C12.051,2 12.146,2.049 12.264,2.119 C12.382,2.189 12.442,2.286 12.442,2.409 C12.437191,2.55805524 12.394147,2.70337189 12.317,2.831 C12.221914,2.996309 12.1092615,3.15087096 11.981,3.292 L11.981,3.292 L7.443,8.75 L5.611,3.345 L5.506,3.075 L5.44,2.897 C5.422,2.844 5.409,2.794 5.4,2.745 C5.391,2.696 5.387,2.637 5.387,2.567 C5.38451516,2.48915042 5.39327198,2.41134943 5.413,2.336 C5.431,2.279 5.464,2.231 5.512,2.191 C5.57607872,2.14291754 5.64726856,2.10512957 5.723,2.079 L6.099,1.947 C6.38,1.842 6.558,1.697 6.633,1.512 C6.708,1.327 6.771,1.095 6.824,0.813 L6.824,0.813 L6.929,0.246 L0.337,0.246 L0.126,1.103 C0.108,1.138 0.095,1.197 0.086,1.281 L0.073,1.512 C0.0715246514,1.58660047 0.0920443573,1.6599845 0.132,1.723 C0.171047299,1.78408758 0.222912421,1.8359527 0.284,1.875 C0.346,1.915 0.409,1.948 0.475,1.974 C0.541,2 0.596,2.018 0.64,2.027 C0.851,2.089 1.018,2.15 1.141,2.212 C1.264,2.274 1.372,2.359 1.464,2.469 C1.556,2.579 1.64,2.728 1.714,2.917 L1.984,3.675 L1.984,3.675 L4.397,10.755 L2.881,16.793 L2.696,17.419 C2.634,17.582 2.564,17.713 2.485,17.815 C2.406,17.917 2.314,17.995 2.208,18.052 C2.09398537,18.1129355 1.974866,18.1637954 1.852,18.204 L1.417,18.389 C1.312,18.442 1.232,18.503 1.18,18.574 C1.128,18.645 1.09,18.728 1.068,18.824 L0.995,19.206 L0.995,19.206 L0.85,19.957 L7.336,19.957 L7.338,19.956 Z" id="Shape"></path>
            </g>
        </g>
    </g>
</svg>