<svg xmlns="http://www.w3.org/2000/svg" width="68" height="26" xmlns:v="https://vecta.io/nano"><path d="M7.338 19.956l.237-.896.053-.185c.018-.07.026-.141.026-.211 0-.114-.042-.196-.125-.244l-.349-.191c-.246-.123-.417-.224-.514-.303s-.145-.193-.145-.343a2.95 2.95 0 0 1 .086-.659l.165-.672h0l1.213-5.049 6.987-8.068c.105-.132.204-.242.297-.33s.213-.187.363-.297l.58-.389.949-.606h0l.356-1.266h-5.748l-.198.857c0 .044-.009.116-.026.218l-.026.191c0 .141.051.242.152.303a2.29 2.29 0 0 0 .31.158c.07.026.165.075.283.145s.178.167.178.29a.87.87 0 0 1-.125.422 2.65 2.65 0 0 1-.336.461h0L7.443 8.75 5.611 3.345l-.105-.27-.066-.178c-.018-.053-.031-.103-.04-.152s-.013-.108-.013-.178a.81.81 0 0 1 .026-.231c.018-.057.051-.105.099-.145a.77.77 0 0 1 .211-.112l.376-.132c.281-.105.459-.25.534-.435s.138-.417.191-.699h0l.105-.567H.337l-.211.857c-.018.035-.031.094-.04.178l-.013.231a.38.38 0 0 0 .059.211.5.5 0 0 0 .152.152c.062.04.125.073.191.099s.121.044.165.053c.211.062.378.123.501.185s.231.147.323.257.176.259.25.448l.27.758h0l2.413 7.08-1.516 6.038-.185.626c-.062.163-.132.294-.211.396s-.171.18-.277.237a2.22 2.22 0 0 1-.356.152l-.435.185c-.105.053-.185.114-.237.185s-.09.154-.112.25l-.073.382h0l-.145.751h6.486zm9.479.264a3.91 3.91 0 0 0 .923-.119c.325-.079.626-.178.903-.297s.505-.246.686-.382.27-.266.27-.389c0-.105-.026-.237-.079-.396h0l-.224-.62-.297.112a1.21 1.21 0 0 1-.204.066c-.062.013-.119.022-.171.026l-.185.007c-.097 0-.202-.046-.316-.138a.43.43 0 0 1-.171-.349 2.96 2.96 0 0 1 .059-.567l.125-.593h0L22.051.246h-4.482l-.211.804-.053.178c-.018.057-.026.108-.026.152 0 .105.055.191.165.257s.253.134.428.204c.053.026.123.077.211.152s.132.16.132.257c0 .158-.018.358-.053.6a6.11 6.11 0 0 1-.158.745h0l-3.111 13.039c-.105.439-.167.795-.185 1.068l-.026.633c0 .237.04.468.119.692a1.69 1.69 0 0 0 .376.606c.171.18.391.323.659.428s.595.158.982.158zm13.395 0a3.88 3.88 0 0 0 .929-.119 5.56 5.56 0 0 0 .89-.297c.272-.119.497-.246.672-.382s.264-.266.264-.389a1.3 1.3 0 0 0-.079-.396h0l-.224-.62-.31.112c-.075.031-.141.053-.198.066s-.112.022-.165.026l-.185.007c-.079 0-.171-.046-.277-.138s-.158-.209-.158-.349a2.91 2.91 0 0 1 .066-.521l.145-.639h0l.738-2.834.264-1.061c.097-.409.145-.881.145-1.417a3.22 3.22 0 0 0-.198-1.127c-.132-.356-.321-.668-.567-.936s-.547-.479-.903-.633-.758-.231-1.206-.231c-.396 0-.762.053-1.101.158a5.29 5.29 0 0 0-.936.389 6.05 6.05 0 0 0-.778.494l-.639.475h0L28.748.246h-4.482l-.237.804-.053.178c-.018.057-.026.108-.026.152 0 .105.057.191.171.257a3.83 3.83 0 0 0 .422.204c.07.026.152.077.244.152s.138.16.138.257a3.85 3.85 0 0 1-.059.6 7.14 7.14 0 0 1-.165.745h0l-3.863 16.361h3.19l1.951-8.095.415-.356a4.68 4.68 0 0 1 .541-.376c.198-.119.415-.22.653-.303a2.21 2.21 0 0 1 .738-.125c.299 0 .558.094.778.283a.92.92 0 0 1 .33.732c0 .141-.011.283-.033.428a1.92 1.92 0 0 1-.086.363h0L28.3 16.634c-.114.448-.185.806-.211 1.074l-.04.626c0 .237.04.468.119.692s.207.426.382.606.4.323.672.428.602.158.989.158zm9.716-13.091l3.731-2.452c.448-.299.762-.576.943-.831s.27-.519.27-.791c0-.352-.101-.659-.303-.923s-.488-.396-.857-.396c-.105 0-.222.009-.349.026a1.49 1.49 0 0 0-.389.112 1.9 1.9 0 0 0-.409.25 2.41 2.41 0 0 0-.422.442h0L39.15 6.561l.778.567zm-5.906 18.088c.615 0 1.219-.18 1.813-.541s1.171-.826 1.734-1.397a17.85 17.85 0 0 0 1.628-1.918l1.496-2.103h0l2.426-3.599.719-1.094 1.206-2.083.389-.784.244-.639c.062-.193.105-.376.132-.547s.04-.336.04-.494c0-.211-.037-.417-.112-.62s-.182-.382-.323-.541a1.59 1.59 0 0 0-.494-.376 1.38 1.38 0 0 0-.613-.138 1.29 1.29 0 0 0-.639.158c-.189.105-.349.237-.481.396s-.233.332-.303.521-.105.371-.105.547a1.47 1.47 0 0 0 .099.567c.066.158.145.294.237.409a1.81 1.81 0 0 0 .29.29l.257.198-.165.363-.158.33-.191.343-.264.415-.264.415-.409.646-.481.758-.488.765-.415.659-.264.435h0l-.923-5.326c-.114-.65-.266-1.167-.455-1.549s-.4-.672-.633-.87-.472-.325-.719-.382a3.2 3.2 0 0 0-.725-.086c-.255 0-.549.04-.883.119s-.65.18-.949.303a3.69 3.69 0 0 0-.758.409c-.207.149-.31.299-.31.448 0 .079.015.145.046.198a1.11 1.11 0 0 1 .072.145h0l.316.62a3.41 3.41 0 0 1 .323-.125 1.48 1.48 0 0 1 .494-.086c.185 0 .338.04.461.119s.229.196.316.349.16.345.218.573l.165.791h0l1.424 7.857-.356.573c-.176.277-.4.578-.672.903s-.587.646-.943.962-.74.567-1.154.751c-.044-.413-.143-.732-.297-.956s-.321-.387-.501-.488-.349-.16-.508-.178l-.316-.026c-.255 0-.479.048-.672.145a1.59 1.59 0 0 0-.488.369c-.132.149-.233.323-.303.521s-.105.393-.105.587a1.71 1.71 0 0 0 .165.725 2.05 2.05 0 0 0 .468.639c.202.189.444.341.725.455s.593.171.936.171zm15.306-5.26l1.239-5.353.488-1.747c.158-.435.31-.778.455-1.028s.283-.433.415-.547l.369-.29c.105.272.259.499.461.679s.497.27.883.27c.299 0 .554-.057.765-.171a1.63 1.63 0 0 0 .521-.435 1.73 1.73 0 0 0 .297-.58c.062-.211.092-.417.092-.62a2.26 2.26 0 0 0-.099-.666 1.67 1.67 0 0 0-.303-.573c-.136-.167-.314-.301-.534-.402s-.483-.152-.791-.152a2.12 2.12 0 0 0-1.068.27c-.316.18-.6.413-.85.699a6.37 6.37 0 0 0-.679.936l-.554.982h0-.053v-.778l-.013-.534a6.26 6.26 0 0 0-.066-.699c-.035-.233-.088-.437-.158-.613s-.171-.264-.303-.264c-.018 0-.062.015-.132.046l-.237.099-.257.112a.92.92 0 0 1-.191.073L48.009 9l-1.516.396h0v.672c0 .229.033.376.099.442s.165.108.297.125l.448.105c.123.035.222.086.297.152s.127.158.158.277.046.283.046.494a14 14 0 0 1-.04.758c-.026.382-.101.833-.224 1.351h0l-1.437 6.183h3.19zm14.818.264a3.88 3.88 0 0 0 .929-.119c.321-.079.615-.178.883-.297s.488-.246.659-.382.257-.266.257-.389c0-.105-.026-.237-.079-.396h0l-.224-.62-.297.112a1.43 1.43 0 0 1-.191.066.99.99 0 0 1-.158.026l-.185.007c-.088 0-.182-.046-.283-.138s-.152-.209-.152-.349c0-.132.022-.301.066-.508l.145-.653h0l1.701-7.106.132-.448a1.32 1.32 0 0 0 .066-.33c0-.097-.011-.185-.033-.264s-.094-.119-.218-.119c-.097 0-.187.031-.27.092l-.218.158-.646.501-.415.277c-.11.062-.2.099-.27.112s-.145.02-.224.02a.89.89 0 0 1-.475-.138L64.12 9a3.81 3.81 0 0 0-.87-.455c-.352-.136-.817-.204-1.397-.204-.589 0-1.169.09-1.74.27a6.67 6.67 0 0 0-1.622.765 7.49 7.49 0 0 0-1.411 1.187 7.75 7.75 0 0 0-1.114 1.536 8.08 8.08 0 0 0-.732 1.819c-.176.65-.264 1.323-.264 2.017 0 .624.077 1.2.231 1.727s.38.98.679 1.358a3.14 3.14 0 0 0 1.094.883c.431.211.923.316 1.477.316.396 0 .769-.057 1.121-.171a4.85 4.85 0 0 0 .982-.442 5.57 5.57 0 0 0 .831-.6 7 7 0 0 0 .653-.646l.198.587a2.11 2.11 0 0 0 .349.606c.154.189.356.347.606.475s.569.191.956.191zm-4.271-2.531a1.31 1.31 0 0 1-.659-.165 1.46 1.46 0 0 1-.488-.455c-.132-.193-.233-.424-.303-.692a3.45 3.45 0 0 1-.105-.877c0-.606.088-1.233.264-1.879s.422-1.237.738-1.773a4.49 4.49 0 0 1 1.154-1.318 2.44 2.44 0 0 1 1.51-.514c.264 0 .492.048.686.145s.354.215.481.356a1.41 1.41 0 0 1 .283.461c.062.167.092.316.092.448 0 .105-.013.226-.04.363l-.066.283h0l-1.028 4.351-.501.435a4.21 4.21 0 0 1-.573.409c-.207.123-.431.224-.672.303s-.499.119-.771.119z"/></svg>