<?xml version="1.0" encoding="UTF-8"?>
<svg width="112px" height="36px" viewBox="0 0 112 36" version="1.1" xmlns="http://www.w3.org/2000/svg" xmlns:xlink="http://www.w3.org/1999/xlink">
    <!-- Generator: Sketch 63.1 (92452) - https://sketch.com -->
    <title>Logo_serif</title>
    <desc>Created with Sketch.</desc>
    <g id="Page-1" stroke="none" stroke-width="1" fill="none" fill-rule="evenodd">
        <circle id="Oval-Copy-4" fill="#5F73F4" opacity="0.268415179" cx="18" cy="18" r="18"></circle>
        <circle id="Oval-Copy-5" fill="#546BDC" cx="18" cy="18" r="10"></circle>
        <path d="M51.0458984,28 L51.2832031,27.1035156 C51.3007812,27.0507812 51.3183594,26.9892578 51.3359375,26.9189453 C51.3535156,26.8486328 51.3623047,26.7783203 51.3623047,26.7080078 C51.3623047,26.59375 51.3205566,26.5124512 51.2370605,26.4641113 C51.1535645,26.4157715 51.0371094,26.3520508 50.8876953,26.2729492 C50.6416016,26.1499023 50.4702148,26.0488281 50.3735352,25.9697266 C50.2768555,25.890625 50.2285156,25.7763672 50.2285156,25.6269531 C50.2285156,25.4335938 50.2570801,25.2138672 50.314209,24.9677734 C50.3713379,24.7216797 50.4262695,24.4975586 50.4790039,24.2954102 L50.4790039,24.2954102 L51.6918945,19.2460938 L58.6791992,11.1777344 C58.784668,11.0458984 58.8835449,10.9360352 58.9758301,10.8481445 C59.0681152,10.7602539 59.1889648,10.661377 59.3383789,10.5515137 C59.487793,10.4416504 59.6811523,10.3120117 59.918457,10.1625977 C60.1557617,10.0131836 60.472168,9.81103516 60.8676758,9.55615234 L60.8676758,9.55615234 L61.2236328,8.29052734 L55.4755859,8.29052734 L55.277832,9.14746094 C55.277832,9.19140625 55.269043,9.26391602 55.2514648,9.36499023 C55.2338867,9.46606445 55.2250977,9.52978516 55.2250977,9.55615234 C55.2250977,9.69677734 55.2756348,9.79785156 55.376709,9.859375 C55.4777832,9.92089844 55.5810547,9.97363281 55.6865234,10.0175781 C55.7568359,10.0439453 55.8513184,10.0922852 55.9699707,10.1625977 C56.088623,10.2329102 56.1479492,10.3295898 56.1479492,10.4526367 C56.1479492,10.5844727 56.1062012,10.7250977 56.0227051,10.8745117 C55.939209,11.0239258 55.8271484,11.1777344 55.6865234,11.3359375 L55.6865234,11.3359375 L51.1513672,16.7939453 L49.3188477,11.3886719 C49.2749023,11.2744141 49.2397461,11.1843262 49.2133789,11.1184082 C49.1870117,11.0524902 49.1650391,10.9931641 49.1474609,10.9404297 C49.1298828,10.8876953 49.1166992,10.8371582 49.1079102,10.7888184 C49.0991211,10.7404785 49.0947266,10.6811523 49.0947266,10.6108398 C49.0947266,10.5141602 49.1035156,10.4372559 49.1210938,10.380127 C49.1386719,10.322998 49.1716309,10.2746582 49.2199707,10.2351074 C49.2683105,10.1955566 49.338623,10.1582031 49.4309082,10.1230469 C49.5231934,10.0878906 49.6484375,10.0439453 49.8066406,9.99121094 C50.0878906,9.88574219 50.2658691,9.74072266 50.3405762,9.55615234 C50.4152832,9.37158203 50.4790039,9.13867188 50.5317383,8.85742188 L50.5317383,8.85742188 L50.637207,8.29052734 L44.0454102,8.29052734 L43.8344727,9.14746094 C43.8168945,9.18261719 43.8037109,9.24194336 43.7949219,9.32543945 C43.7861328,9.40893555 43.7817383,9.48583984 43.7817383,9.55615234 C43.7817383,9.63525391 43.8015137,9.70556641 43.8410645,9.76708984 C43.8806152,9.82861328 43.9311523,9.87915039 43.9926758,9.91870117 C44.0541992,9.95825195 44.1179199,9.99121094 44.1838379,10.0175781 C44.2497559,10.0439453 44.3046875,10.0615234 44.3486328,10.0703125 C44.5595703,10.1318359 44.7265625,10.1933594 44.8496094,10.2548828 C44.9726562,10.3164062 45.0803223,10.4020996 45.1726074,10.5119629 C45.2648926,10.6218262 45.3483887,10.7712402 45.4230957,10.9602051 C45.4978027,11.1491699 45.5878906,11.4018555 45.6933594,11.7182617 L45.6933594,11.7182617 L48.105957,18.7978516 L46.5898438,24.8359375 C46.5283203,25.0908203 46.4667969,25.2995605 46.4052734,25.4621582 C46.34375,25.6247559 46.2734375,25.7565918 46.1943359,25.857666 C46.1152344,25.9587402 46.0229492,26.0378418 45.9174805,26.0949707 C45.8120117,26.1520996 45.6933594,26.2026367 45.5615234,26.246582 C45.3769531,26.3168945 45.2319336,26.378418 45.1264648,26.4311523 C45.0209961,26.4838867 44.9418945,26.5454102 44.8891602,26.6157227 C44.8364258,26.6860352 44.7990723,26.7695312 44.7770996,26.8662109 C44.755127,26.9628906 44.730957,27.090332 44.7045898,27.2485352 L44.7045898,27.2485352 L44.5595703,28 L51.0458984,28 Z M60.5249023,28.2636719 C60.8149414,28.2636719 61.1225586,28.2241211 61.4477539,28.1450195 C61.7729492,28.065918 62.0739746,27.967041 62.3508301,27.8483887 C62.6276855,27.7297363 62.8562012,27.6022949 63.036377,27.4660645 C63.2165527,27.329834 63.3066406,27.2001953 63.3066406,27.0771484 C63.3066406,26.9716797 63.2802734,26.8398438 63.2275391,26.6816406 L63.2275391,26.6816406 L63.003418,26.0620117 C62.8803711,26.105957 62.7814941,26.1433105 62.7067871,26.1740723 C62.6320801,26.204834 62.5639648,26.2268066 62.5024414,26.2399902 C62.440918,26.2531738 62.3837891,26.2619629 62.3310547,26.2663574 C62.2783203,26.270752 62.2167969,26.2729492 62.1464844,26.2729492 C62.0498047,26.2729492 61.9443359,26.2268066 61.8300781,26.1345215 C61.7158203,26.0422363 61.6586914,25.9257812 61.6586914,25.7851562 C61.6586914,25.609375 61.6784668,25.4204102 61.7180176,25.2182617 C61.7575684,25.0161133 61.7993164,24.8183594 61.8432617,24.625 L61.8432617,24.625 L65.7587891,8.29052734 L61.2763672,8.29052734 L61.0654297,9.09472656 C61.0478516,9.15625 61.0302734,9.21557617 61.0126953,9.27270508 C60.9951172,9.32983398 60.9863281,9.38037109 60.9863281,9.42431641 C60.9863281,9.52978516 61.0412598,9.61547852 61.151123,9.68139648 C61.2609863,9.74731445 61.4038086,9.81542969 61.5795898,9.88574219 C61.6323242,9.91210938 61.7026367,9.96264648 61.7905273,10.0373535 C61.878418,10.1120605 61.9223633,10.1977539 61.9223633,10.2944336 C61.9223633,10.4526367 61.9047852,10.6525879 61.8696289,10.8942871 C61.8344727,11.1359863 61.7817383,11.3842773 61.7114258,11.6391602 L61.7114258,11.6391602 L58.6000977,24.6777344 C58.4946289,25.1171875 58.4331055,25.4731445 58.4155273,25.7456055 C58.3979492,26.0180664 58.3891602,26.2290039 58.3891602,26.378418 C58.3891602,26.6157227 58.4287109,26.8464355 58.5078125,27.0705566 C58.5869141,27.2946777 58.7121582,27.4968262 58.8835449,27.677002 C59.0549316,27.8571777 59.2746582,28 59.5427246,28.1054688 C59.810791,28.2109375 60.1381836,28.2636719 60.5249023,28.2636719 Z M73.9194336,28.2636719 C74.2182617,28.2636719 74.5280762,28.2241211 74.848877,28.1450195 C75.1696777,28.065918 75.4663086,27.967041 75.7387695,27.8483887 C76.0112305,27.7297363 76.2353516,27.6022949 76.4111328,27.4660645 C76.5869141,27.329834 76.6748047,27.2001953 76.6748047,27.0771484 C76.6748047,26.9716797 76.6484375,26.8398438 76.5957031,26.6816406 L76.5957031,26.6816406 L76.371582,26.0620117 C76.2397461,26.105957 76.1364746,26.1433105 76.0617676,26.1740723 C75.9870605,26.204834 75.9211426,26.2268066 75.8640137,26.2399902 C75.8068848,26.2531738 75.7519531,26.2619629 75.6992188,26.2663574 C75.6464844,26.270752 75.5849609,26.2729492 75.5146484,26.2729492 C75.4355469,26.2729492 75.3432617,26.2268066 75.237793,26.1345215 C75.1323242,26.0422363 75.0795898,25.9257812 75.0795898,25.7851562 C75.0795898,25.6621094 75.1015625,25.4885254 75.1455078,25.2644043 C75.1894531,25.0402832 75.237793,24.8271484 75.2905273,24.625 L75.2905273,24.625 L76.0288086,21.7905273 C76.1079102,21.4916992 76.1958008,21.1379395 76.2924805,20.729248 C76.3891602,20.3205566 76.4375,19.8481445 76.4375,19.3120117 C76.4375,18.9165039 76.371582,18.5407715 76.2397461,18.1848145 C76.1079102,17.8288574 75.9189453,17.5168457 75.6728516,17.2487793 C75.4267578,16.9807129 75.1257324,16.7697754 74.7697754,16.6159668 C74.4138184,16.4621582 74.0117188,16.3852539 73.5634766,16.3852539 C73.1679688,16.3852539 72.8010254,16.4379883 72.4626465,16.543457 C72.1242676,16.6489258 71.8122559,16.7785645 71.5266113,16.932373 C71.2409668,17.0861816 70.9816895,17.2509766 70.7487793,17.4267578 C70.5158691,17.6025391 70.3027344,17.7607422 70.109375,17.9013672 L70.109375,17.9013672 L72.4560547,8.29052734 L67.9736328,8.29052734 L67.7363281,9.09472656 C67.71875,9.15625 67.7011719,9.21557617 67.6835938,9.27270508 C67.6660156,9.32983398 67.6572266,9.38037109 67.6572266,9.42431641 C67.6572266,9.52978516 67.7143555,9.61547852 67.8286133,9.68139648 C67.9428711,9.74731445 68.0834961,9.81542969 68.2504883,9.88574219 C68.3208008,9.91210938 68.4020996,9.96264648 68.4943848,10.0373535 C68.5866699,10.1120605 68.6328125,10.1977539 68.6328125,10.2944336 C68.6328125,10.4526367 68.6130371,10.6525879 68.5734863,10.8942871 C68.5339355,11.1359863 68.4790039,11.3842773 68.4086914,11.6391602 L68.4086914,11.6391602 L64.5458984,28 L67.7363281,28 L69.6875,19.9052734 C69.8017578,19.7998047 69.9401855,19.6811523 70.1027832,19.5493164 C70.2653809,19.4174805 70.4455566,19.2922363 70.6433105,19.173584 C70.8410645,19.0549316 71.0585938,18.9538574 71.2958984,18.8703613 C71.5332031,18.7868652 71.7792969,18.7451172 72.0341797,18.7451172 C72.3330078,18.7451172 72.5922852,18.8395996 72.8120117,19.0285645 C73.0317383,19.2175293 73.1416016,19.4614258 73.1416016,19.7602539 C73.1416016,19.9008789 73.1306152,20.0437012 73.1086426,20.1887207 C73.0866699,20.3337402 73.0581055,20.4545898 73.0229492,20.5512695 L73.0229492,20.5512695 L72.0078125,24.6777344 C71.8935547,25.1259766 71.8232422,25.4841309 71.796875,25.7521973 C71.7705078,26.0202637 71.7573242,26.2290039 71.7573242,26.378418 C71.7573242,26.6157227 71.796875,26.8464355 71.8759766,27.0705566 C71.9550781,27.2946777 72.0825195,27.4968262 72.2583008,27.677002 C72.434082,27.8571777 72.6582031,28 72.9306641,28.1054688 C73.203125,28.2109375 73.5327148,28.2636719 73.9194336,28.2636719 Z M83.6357422,15.1723633 L87.3666992,12.7202148 C87.8149414,12.4213867 88.1291504,12.1445312 88.3093262,11.8896484 C88.489502,11.6347656 88.5795898,11.3710938 88.5795898,11.0986328 C88.5795898,10.7470703 88.4785156,10.4394531 88.2763672,10.1757812 C88.0742188,9.91210938 87.7885742,9.78027344 87.4194336,9.78027344 C87.3139648,9.78027344 87.1975098,9.7890625 87.0700684,9.80664062 C86.942627,9.82421875 86.8129883,9.86157227 86.6811523,9.91870117 C86.5493164,9.97583008 86.4130859,10.0593262 86.2724609,10.1691895 C86.1318359,10.2790527 85.9912109,10.4262695 85.8505859,10.6108398 L85.8505859,10.6108398 L82.8579102,14.6054688 L83.6357422,15.1723633 Z M77.7294922,33.2602539 C78.3447266,33.2602539 78.9489746,33.0800781 79.5422363,32.7197266 C80.135498,32.359375 80.7133789,31.8935547 81.2758789,31.3222656 C81.8383789,30.7509766 82.3811035,30.1115723 82.9040527,29.4040527 C83.427002,28.6965332 83.9257812,27.9956055 84.4003906,27.3012695 L84.4003906,27.3012695 L86.8261719,23.7021484 C86.9755859,23.4912109 87.2150879,23.1264648 87.5446777,22.6079102 C87.8742676,22.0893555 88.2763672,21.3950195 88.7509766,20.5249023 C88.9091797,20.2348633 89.0388184,19.9733887 89.1398926,19.7404785 C89.2409668,19.5075684 89.3222656,19.2944336 89.3837891,19.1010742 C89.4453125,18.9077148 89.4892578,18.7253418 89.515625,18.5539551 C89.5419922,18.3825684 89.5551758,18.2177734 89.5551758,18.0595703 C89.5551758,17.8486328 89.5178223,17.6420898 89.4431152,17.4399414 C89.3684082,17.237793 89.2607422,17.0576172 89.1201172,16.8994141 C88.9794922,16.7412109 88.8146973,16.6159668 88.6257324,16.5236816 C88.4367676,16.4313965 88.2324219,16.3852539 88.0126953,16.3852539 C87.7753906,16.3852539 87.5622559,16.4379883 87.373291,16.543457 C87.1843262,16.6489258 87.0239258,16.7807617 86.8920898,16.9389648 C86.7602539,17.097168 86.6591797,17.270752 86.5888672,17.4597168 C86.5185547,17.6486816 86.4833984,17.8310547 86.4833984,18.0068359 C86.4833984,18.2265625 86.5163574,18.4155273 86.5822754,18.5737305 C86.6481934,18.7319336 86.7272949,18.8681641 86.8195801,18.9824219 C86.9118652,19.0966797 87.0085449,19.1933594 87.1096191,19.2724609 C87.2106934,19.3515625 87.2963867,19.4174805 87.3666992,19.4702148 C87.3051758,19.6020508 87.2502441,19.7229004 87.2019043,19.8327637 C87.1535645,19.942627 87.1008301,20.0524902 87.0437012,20.1623535 C86.9865723,20.2722168 86.9228516,20.3864746 86.8525391,20.505127 C86.7822266,20.6237793 86.6943359,20.762207 86.5888672,20.9204102 C86.5361328,21.0083008 86.4482422,21.1467285 86.3251953,21.3356934 C86.2021484,21.5246582 86.065918,21.7399902 85.9165039,21.9816895 C85.7670898,22.2233887 85.6066895,22.4760742 85.4353027,22.7397461 C85.263916,23.003418 85.1013184,23.2583008 84.9475098,23.5043945 C84.7937012,23.7504883 84.6552734,23.9702148 84.5322266,24.1635742 C84.4091797,24.3569336 84.3212891,24.5019531 84.2685547,24.5986328 L84.2685547,24.5986328 L83.3457031,19.2724609 C83.2314453,18.6220703 83.079834,18.1057129 82.8908691,17.7233887 C82.7019043,17.3410645 82.4909668,17.0510254 82.2580566,16.8532715 C82.0251465,16.6555176 81.7856445,16.5280762 81.5395508,16.4709473 C81.293457,16.4138184 81.0517578,16.3852539 80.8144531,16.3852539 C80.5595703,16.3852539 80.2651367,16.4248047 79.9311523,16.5039062 C79.597168,16.5830078 79.2807617,16.684082 78.9819336,16.8071289 C78.6831055,16.9301758 78.4304199,17.0664062 78.223877,17.2158203 C78.017334,17.3652344 77.9140625,17.5146484 77.9140625,17.6640625 C77.9140625,17.7431641 77.9294434,17.809082 77.9602051,17.8618164 C77.9909668,17.9145508 78.0151367,17.9628906 78.0327148,18.0068359 L78.0327148,18.0068359 L78.3491211,18.6264648 C78.4018555,18.6000977 78.5095215,18.5583496 78.6721191,18.5012207 C78.8347168,18.4440918 78.9995117,18.4155273 79.1665039,18.4155273 C79.3510742,18.4155273 79.5048828,18.4550781 79.6279297,18.5341797 C79.7509766,18.6132812 79.8564453,18.7297363 79.9443359,18.8835449 C80.0322266,19.0373535 80.1047363,19.2285156 80.1618652,19.4570312 C80.2189941,19.6855469 80.2739258,19.9492188 80.3266602,20.2480469 L80.3266602,20.2480469 L81.7504883,28.1054688 C81.6889648,28.2109375 81.5703125,28.4020996 81.3945312,28.6789551 C81.21875,28.9558105 80.9946289,29.2568359 80.722168,29.5820312 C80.449707,29.9072266 80.135498,30.2280273 79.779541,30.5444336 C79.423584,30.8608398 79.0390625,31.1113281 78.6259766,31.2958984 C78.5820312,30.8828125 78.4831543,30.564209 78.3293457,30.3400879 C78.1755371,30.1159668 78.0085449,29.9533691 77.8283691,29.8522949 C77.6481934,29.7512207 77.4790039,29.6918945 77.3208008,29.6743164 C77.1625977,29.6567383 77.0571289,29.6479492 77.0043945,29.6479492 C76.7495117,29.6479492 76.5253906,29.6962891 76.3320312,29.7929688 C76.1386719,29.8896484 75.9760742,30.0126953 75.8442383,30.1621094 C75.7124023,30.3115234 75.6113281,30.4851074 75.5410156,30.6828613 C75.4707031,30.8806152 75.4355469,31.0761719 75.4355469,31.2695312 C75.4355469,31.515625 75.4904785,31.7573242 75.6003418,31.9946289 C75.7102051,32.2319336 75.8662109,32.4450684 76.0683594,32.6340332 C76.2705078,32.822998 76.512207,32.9746094 76.793457,33.0888672 C77.074707,33.203125 77.3867188,33.2602539 77.7294922,33.2602539 Z M93.0356445,28 L94.2749023,22.6474609 C94.4418945,21.9179688 94.6044922,21.3356934 94.7626953,20.9006348 C94.9208984,20.4655762 95.0725098,20.1228027 95.2175293,19.8723145 C95.3625488,19.6218262 95.5009766,19.4394531 95.6328125,19.3251953 C95.7646484,19.2109375 95.8876953,19.1142578 96.0019531,19.0351562 C96.1074219,19.3076172 96.2612305,19.5339355 96.4633789,19.7141113 C96.6655273,19.8942871 96.9599609,19.984375 97.3466797,19.984375 C97.6455078,19.984375 97.9003906,19.9272461 98.1113281,19.8129883 C98.3222656,19.6987305 98.4958496,19.5537109 98.6320801,19.3779297 C98.7683105,19.2021484 98.8671875,19.0087891 98.9287109,18.7978516 C98.9902344,18.5869141 99.0209961,18.3803711 99.0209961,18.1782227 C99.0209961,17.949707 98.9880371,17.7277832 98.9221191,17.5124512 C98.8562012,17.2971191 98.755127,17.105957 98.6188965,16.9389648 C98.482666,16.7719727 98.3046875,16.6379395 98.0849609,16.5368652 C97.8652344,16.435791 97.6015625,16.3852539 97.2939453,16.3852539 C96.8984375,16.3852539 96.5424805,16.4753418 96.2260742,16.6555176 C95.909668,16.8356934 95.6262207,17.0686035 95.3757324,17.354248 C95.1252441,17.6398926 94.8989258,17.9519043 94.6967773,18.2902832 C94.4946289,18.6286621 94.3100586,18.9560547 94.1430664,19.2724609 L94.1430664,19.2724609 L94.090332,19.2724609 L94.090332,18.4946289 C94.090332,18.371582 94.0859375,18.1936035 94.0771484,17.9606934 C94.0683594,17.7277832 94.0463867,17.494873 94.0112305,17.2619629 C93.9760742,17.0290527 93.9233398,16.824707 93.8530273,16.6489258 C93.7827148,16.4731445 93.6816406,16.3852539 93.5498047,16.3852539 C93.5322266,16.3852539 93.4882812,16.4006348 93.4179688,16.4313965 C93.3476562,16.4621582 93.2685547,16.4951172 93.1806641,16.5302734 C93.0927734,16.5654297 93.0070801,16.6027832 92.923584,16.642334 C92.8400879,16.6818848 92.7763672,16.7060547 92.7324219,16.7148438 C92.4335938,16.8203125 92.0952148,16.9301758 91.7172852,17.0444336 C91.3393555,17.1586914 90.8339844,17.2905273 90.2011719,17.4399414 L90.2011719,17.4399414 L90.2011719,18.1123047 C90.2011719,18.3408203 90.2341309,18.4880371 90.3000488,18.5539551 C90.3659668,18.619873 90.4648438,18.6616211 90.5966797,18.6791992 C90.7724609,18.7143555 90.921875,18.7495117 91.0449219,18.784668 C91.1679688,18.8198242 91.2668457,18.8703613 91.3415527,18.9362793 C91.4162598,19.0021973 91.4689941,19.0944824 91.4997559,19.2131348 C91.5305176,19.3317871 91.5458984,19.496582 91.5458984,19.7075195 C91.5458984,19.8305664 91.5327148,20.083252 91.5063477,20.4655762 C91.4799805,20.8479004 91.4052734,21.2983398 91.2822266,21.8168945 L91.2822266,21.8168945 L89.8452148,28 L93.0356445,28 Z M107.854004,28.2636719 C108.152832,28.2636719 108.462646,28.2241211 108.783447,28.1450195 C109.104248,28.065918 109.398682,27.967041 109.666748,27.8483887 C109.934814,27.7297363 110.154541,27.6022949 110.325928,27.4660645 C110.497314,27.329834 110.583008,27.2001953 110.583008,27.0771484 C110.583008,26.9716797 110.556641,26.8398438 110.503906,26.6816406 L110.503906,26.6816406 L110.279785,26.0620117 C110.156738,26.105957 110.057861,26.1433105 109.983154,26.1740723 C109.908447,26.204834 109.844727,26.2268066 109.791992,26.2399902 C109.739258,26.2531738 109.686523,26.2619629 109.633789,26.2663574 C109.581055,26.270752 109.519531,26.2729492 109.449219,26.2729492 C109.361328,26.2729492 109.266846,26.2268066 109.165771,26.1345215 C109.064697,26.0422363 109.01416,25.9257812 109.01416,25.7851562 C109.01416,25.6533203 109.036133,25.4841309 109.080078,25.2775879 C109.124023,25.0710449 109.172363,24.8535156 109.225098,24.625 L109.225098,24.625 L110.925781,17.519043 C110.969727,17.3696289 111.013672,17.2202148 111.057617,17.0708008 C111.101562,16.9213867 111.123535,16.8115234 111.123535,16.7412109 C111.123535,16.6445312 111.112549,16.5566406 111.090576,16.4775391 C111.068604,16.3984375 110.996094,16.3588867 110.873047,16.3588867 C110.776367,16.3588867 110.686279,16.3896484 110.602783,16.4511719 C110.519287,16.5126953 110.446777,16.5654297 110.385254,16.609375 C110.121582,16.8203125 109.90625,16.9873047 109.739258,17.1103516 C109.572266,17.2333984 109.433838,17.3256836 109.323975,17.387207 C109.214111,17.4487305 109.124023,17.486084 109.053711,17.4992676 C108.983398,17.5124512 108.908691,17.519043 108.82959,17.519043 C108.662598,17.519043 108.504395,17.4729004 108.35498,17.3806152 C108.205566,17.2883301 108.029785,17.1762695 107.827637,17.0444336 C107.599121,16.8774414 107.309082,16.7258301 106.95752,16.5895996 C106.605957,16.4533691 106.140137,16.3852539 105.560059,16.3852539 C104.971191,16.3852539 104.391113,16.4753418 103.819824,16.6555176 C103.248535,16.8356934 102.708008,17.0905762 102.198242,17.420166 C101.688477,17.7497559 101.218262,18.1452637 100.787598,18.6066895 C100.356934,19.0681152 99.9855957,19.5800781 99.673584,20.1425781 C99.3615723,20.7050781 99.1176758,21.3115234 98.9418945,21.9619141 C98.7661133,22.6123047 98.6782227,23.284668 98.6782227,23.9790039 C98.6782227,24.6030273 98.755127,25.1787109 98.9089355,25.7060547 C99.0627441,26.2333984 99.2890625,26.6860352 99.5878906,27.0639648 C99.8867188,27.4418945 100.251465,27.7363281 100.682129,27.9472656 C101.112793,28.1582031 101.60498,28.2636719 102.158691,28.2636719 C102.554199,28.2636719 102.927734,28.206543 103.279297,28.0922852 C103.630859,27.9780273 103.958252,27.8308105 104.261475,27.6506348 C104.564697,27.470459 104.841553,27.2705078 105.092041,27.0507812 C105.342529,26.8310547 105.560059,26.6157227 105.744629,26.4047852 C105.797363,26.5805664 105.863281,26.776123 105.942383,26.9914551 C106.021484,27.2067871 106.137939,27.4089355 106.291748,27.5979004 C106.445557,27.7868652 106.647705,27.9450684 106.898193,28.0725098 C107.148682,28.1999512 107.467285,28.2636719 107.854004,28.2636719 Z M103.58252,25.7324219 C103.336426,25.7324219 103.116699,25.6774902 102.92334,25.567627 C102.72998,25.4577637 102.567383,25.3061523 102.435547,25.112793 C102.303711,24.9194336 102.202637,24.6887207 102.132324,24.4206543 C102.062012,24.1525879 102.026855,23.8603516 102.026855,23.5439453 C102.026855,22.9375 102.114746,22.3112793 102.290527,21.6652832 C102.466309,21.0192871 102.712402,20.4282227 103.028809,19.8920898 C103.345215,19.355957 103.729736,18.9165039 104.182373,18.5737305 C104.63501,18.230957 105.138184,18.0595703 105.691895,18.0595703 C105.955566,18.0595703 106.184082,18.1079102 106.377441,18.2045898 C106.570801,18.3012695 106.731201,18.4199219 106.858643,18.5605469 C106.986084,18.7011719 107.080566,18.8549805 107.14209,19.0219727 C107.203613,19.1889648 107.234375,19.3383789 107.234375,19.4702148 C107.234375,19.5756836 107.221191,19.6965332 107.194824,19.8327637 C107.168457,19.9689941 107.146484,20.0634766 107.128906,20.1162109 L107.128906,20.1162109 L106.100586,24.4667969 C105.942383,24.6074219 105.775391,24.7524414 105.599609,24.9018555 C105.423828,25.0512695 105.232666,25.1875 105.026123,25.3105469 C104.81958,25.4335938 104.595459,25.534668 104.35376,25.6137695 C104.112061,25.6928711 103.85498,25.7324219 103.58252,25.7324219 Z" id="Ylhýra" fill="#000000" fill-rule="nonzero"></path>
    </g>
</svg>