<?xml version="1.0" encoding="UTF-8"?>
<svg width="90px" height="29px" viewBox="0 0 90 29" version="1.1" xmlns="http://www.w3.org/2000/svg" xmlns:xlink="http://www.w3.org/1999/xlink">
    <!-- Generator: Sketch 55.1 (78136) - https://sketchapp.com -->
    <title>logo</title>
    <desc>Created with Sketch.</desc>
    <g id="Page-1" stroke="none" stroke-width="1" fill="none" fill-rule="evenodd">
        <circle id="Oval-Copy-2" fill="#949FDF" cx="14.5" cy="14.5" r="14.5"></circle>
        <circle id="Oval-Copy-3" fill="#4860D5" cx="14.5" cy="14.5" r="8.5"></circle>
        <path d="M42.818,15.274 L38.364,7.862 L41.356,7.862 L44.195,12.656 L47.017,7.862 L49.992,7.862 L45.487,15.342 L45.487,20 L42.818,20 L42.818,15.274 Z M50.825,7.862 L53.239,7.862 L53.239,20 L50.825,20 L50.825,7.862 Z M55.143,7.862 L57.557,7.862 L57.557,12.435 L57.608,12.435 C57.9140015,11.9249974 58.3049976,11.5538345 58.781,11.3215 C59.2570024,11.0891655 59.7216644,10.973 60.175,10.973 C60.8210032,10.973 61.3508313,11.0608325 61.7645,11.2365 C62.1781687,11.4121675 62.5039988,11.6558318 62.742,11.9675 C62.9800012,12.2791682 63.1471662,12.6588311 63.2435,13.1065 C63.3398338,13.5541689 63.388,14.0499973 63.388,14.594 L63.388,20 L60.974,20 L60.974,15.036 C60.974,14.310663 60.8606678,13.7695018 60.634,13.4125 C60.4073322,13.0554982 60.0050029,12.877 59.427,12.877 C58.7696634,12.877 58.2936681,13.072498 57.999,13.4635 C57.7043319,13.854502 57.557,14.4976622 57.557,15.393 L57.557,20 L55.143,20 L55.143,7.862 Z M69.559,21.088 C69.298332,21.8020036 68.935669,22.3119985 68.471,22.618 C68.006331,22.9240015 67.3603375,23.077 66.533,23.077 C66.2836654,23.077 66.0371679,23.0685001 65.7935,23.0515 C65.5498321,23.0344999 65.3033346,23.0146668 65.054,22.992 L65.054,21.003 C65.2806678,21.0256668 65.5129988,21.0483332 65.751,21.071 C65.9890012,21.0936668 66.2269988,21.0993334 66.465,21.088 C66.7823349,21.0539998 67.0174992,20.9293344 67.1705,20.714 C67.3235008,20.4986656 67.4,20.260668 67.4,20 C67.4,19.8073324 67.3660003,19.6260009 67.298,19.456 L64.221,11.211 L66.788,11.211 L68.777,17.229 L68.811,17.229 L70.732,11.211 L73.231,11.211 L69.559,21.088 Z M71.922,6.655 L69.151,9.664 L67.468,9.664 L69.27,6.655 L71.922,6.655 Z M74.047,11.211 L76.342,11.211 L76.342,12.843 L76.376,12.843 C76.4893339,12.5709986 76.6423324,12.3188345 76.835,12.0865 C77.0276676,11.8541655 77.2486654,11.6558342 77.498,11.4915 C77.7473346,11.3271658 78.0136653,11.1996671 78.297,11.109 C78.5803348,11.0183329 78.8749985,10.973 79.181,10.973 C79.3396675,10.973 79.5153324,11.001333 79.708,11.058 L79.708,13.302 C79.5946661,13.2793332 79.4586675,13.2595001 79.3,13.2425 C79.1413325,13.2254999 78.9883341,13.217 78.841,13.217 C78.3989978,13.217 78.0250015,13.2906659 77.719,13.438 C77.4129985,13.5853341 77.1665009,13.7864987 76.9795,14.0415 C76.7924991,14.2965013 76.6593337,14.5939983 76.58,14.934 C76.5006663,15.2740017 76.461,15.6423313 76.461,16.039 L76.461,20 L74.047,20 L74.047,11.211 Z M80.558,13.914 C80.5920002,13.3473305 80.7336654,12.8770019 80.983,12.503 C81.2323346,12.1289981 81.5496647,11.8286678 81.935,11.602 C82.3203353,11.3753322 82.7538309,11.2138338 83.2355,11.1175 C83.7171691,11.0211662 84.2016642,10.973 84.689,10.973 C85.1310022,10.973 85.5786644,11.0041664 86.032,11.0665 C86.4853356,11.1288336 86.8989981,11.2506658 87.273,11.432 C87.6470019,11.6133342 87.9529988,11.8654984 88.191,12.1885 C88.4290012,12.5115016 88.548,12.9393307 88.548,13.472 L88.548,18.045 C88.548,18.4416687 88.5706664,18.8213315 88.616,19.184 C88.6613336,19.5466685 88.7406661,19.8186658 88.854,20 L86.406,20 C86.3606664,19.8639993 86.3238335,19.7251674 86.2955,19.5835 C86.2671665,19.4418326 86.2473334,19.2973341 86.236,19.15 C85.8506647,19.5466687 85.3973359,19.8243325 84.876,19.983 C84.3546641,20.1416675 83.8220027,20.221 83.278,20.221 C82.8586646,20.221 82.4676685,20.1700005 82.105,20.068 C81.7423315,19.9659995 81.4250014,19.8073344 81.153,19.592 C80.8809986,19.3766656 80.6685008,19.1046683 80.5155,18.776 C80.3624992,18.4473317 80.286,18.0563356 80.286,17.603 C80.286,17.1043308 80.3738325,16.6935016 80.5495,16.3705 C80.7251675,16.0474984 80.9518319,15.7896676 81.2295,15.597 C81.5071681,15.4043324 81.8244982,15.2598338 82.1815,15.1635 C82.5385018,15.0671662 82.8983315,14.9906669 83.261,14.934 C83.6236685,14.877333 83.9806649,14.8320002 84.332,14.798 C84.6833351,14.7639998 84.9949986,14.7130003 85.267,14.645 C85.5390014,14.5769997 85.7543325,14.477834 85.913,14.3475 C86.0716675,14.217166 86.1453334,14.0273346 86.134,13.778 C86.134,13.517332 86.0915004,13.3105008 86.0065,13.1575 C85.9214996,13.0044992 85.8081674,12.8855004 85.6665,12.8005 C85.5248326,12.7154996 85.3605009,12.6588335 85.1735,12.6305 C84.9864991,12.6021665 84.7853344,12.588 84.57,12.588 C84.0939976,12.588 83.7200014,12.689999 83.448,12.894 C83.1759986,13.098001 83.0173336,13.4379976 82.972,13.914 L80.558,13.914 Z M86.134,15.699 C86.0319995,15.7896671 85.9045008,15.8604997 85.7515,15.9115 C85.5984992,15.9625003 85.4341675,16.0049998 85.2585,16.039 C85.0828325,16.0730002 84.8986676,16.1013332 84.706,16.124 C84.5133324,16.1466668 84.3206676,16.1749998 84.128,16.209 C83.9466658,16.2430002 83.7681675,16.288333 83.5925,16.345 C83.4168325,16.4016669 83.263834,16.4781662 83.1335,16.5745 C83.003166,16.6708338 82.8983337,16.7926659 82.819,16.94 C82.7396663,17.0873341 82.7,17.2743322 82.7,17.501 C82.7,17.7163344 82.7396663,17.8976659 82.819,18.045 C82.8983337,18.1923341 83.0059993,18.3084996 83.142,18.3935 C83.2780007,18.4785004 83.4366658,18.5379998 83.618,18.572 C83.7993342,18.6060002 83.9863324,18.623 84.179,18.623 C84.6550024,18.623 85.023332,18.5436675 85.284,18.385 C85.544668,18.2263325 85.7373327,18.0365011 85.862,17.8155 C85.9866673,17.5944989 86.0631665,17.3706678 86.0915,17.144 C86.1198335,16.9173322 86.134,16.7360007 86.134,16.6 L86.134,15.699 Z" id="Ylhýra" fill="#FFFFFF" fill-rule="nonzero"></path>
    </g>
</svg>